<mxfile host="app.diagrams.net" modified="2024-06-26T02:12:18.665Z" agent="Mozilla/5.0 (Macintosh; Intel Mac OS X 10_15_7) AppleWebKit/537.36 (KHTML, like Gecko) Chrome/125.0.0.0 Safari/537.36" etag="6fSLeaE41FjZFOF3zIsV" version="24.5.4" type="device">
  <diagram name="Page-1" id="RKtXmMHVuPjeEI1anVtn">
    <mxGraphModel dx="833" dy="715" grid="1" gridSize="10" guides="1" tooltips="1" connect="1" arrows="1" fold="1" page="1" pageScale="1" pageWidth="850" pageHeight="1100" math="0" shadow="0">
      <root>
        <mxCell id="0" />
        <mxCell id="1" parent="0" />
        <mxCell id="HKq2_l8QwF1ey5nwCKm9-34" value="" style="rounded=0;whiteSpace=wrap;html=1;" vertex="1" parent="1">
          <mxGeometry x="280" y="600" width="250" height="100" as="geometry" />
        </mxCell>
        <mxCell id="HKq2_l8QwF1ey5nwCKm9-1" value="Goal" style="swimlane;fontStyle=1;align=center;verticalAlign=top;childLayout=stackLayout;horizontal=1;startSize=26;horizontalStack=0;resizeParent=1;resizeParentMax=0;resizeLast=0;collapsible=1;marginBottom=0;whiteSpace=wrap;html=1;" vertex="1" parent="1">
          <mxGeometry x="330" y="40" width="220" height="230" as="geometry" />
        </mxCell>
        <mxCell id="HKq2_l8QwF1ey5nwCKm9-2" value="&lt;div&gt;+ _name&lt;/div&gt;+ _description: string&lt;div&gt;+ _pointValue: int&lt;/div&gt;&lt;div&gt;+ _isComplete: bool&lt;br&gt;&lt;/div&gt;" style="text;strokeColor=none;fillColor=none;align=left;verticalAlign=top;spacingLeft=4;spacingRight=4;overflow=hidden;rotatable=0;points=[[0,0.5],[1,0.5]];portConstraint=eastwest;whiteSpace=wrap;html=1;" vertex="1" parent="HKq2_l8QwF1ey5nwCKm9-1">
          <mxGeometry y="26" width="220" height="74" as="geometry" />
        </mxCell>
        <mxCell id="HKq2_l8QwF1ey5nwCKm9-3" value="" style="line;strokeWidth=1;fillColor=none;align=left;verticalAlign=middle;spacingTop=-1;spacingLeft=3;spacingRight=3;rotatable=0;labelPosition=right;points=[];portConstraint=eastwest;strokeColor=inherit;" vertex="1" parent="HKq2_l8QwF1ey5nwCKm9-1">
          <mxGeometry y="100" width="220" height="8" as="geometry" />
        </mxCell>
        <mxCell id="HKq2_l8QwF1ey5nwCKm9-4" value="+ Goal(string description, int points)&lt;div&gt;+Virtual AddPoints(): int&lt;/div&gt;&lt;div&gt;&lt;span style=&quot;background-color: initial;&quot;&gt;+&lt;/span&gt;&lt;span style=&quot;background-color: initial;&quot;&gt;Virtual&lt;/span&gt;&lt;span style=&quot;background-color: initial;&quot;&gt;&amp;nbsp;RecordEvent(): void&lt;/span&gt;&lt;br&gt;&lt;/div&gt;&lt;div&gt;&lt;div&gt;+Virtual SetCompleteness(bool): void&lt;/div&gt;&lt;div&gt;&lt;br&gt;&lt;/div&gt;&lt;/div&gt;" style="text;strokeColor=none;fillColor=none;align=left;verticalAlign=top;spacingLeft=4;spacingRight=4;overflow=hidden;rotatable=0;points=[[0,0.5],[1,0.5]];portConstraint=eastwest;whiteSpace=wrap;html=1;" vertex="1" parent="HKq2_l8QwF1ey5nwCKm9-1">
          <mxGeometry y="108" width="220" height="122" as="geometry" />
        </mxCell>
        <mxCell id="HKq2_l8QwF1ey5nwCKm9-5" value="Simple Goal" style="swimlane;fontStyle=1;align=center;verticalAlign=top;childLayout=stackLayout;horizontal=1;startSize=26;horizontalStack=0;resizeParent=1;resizeParentMax=0;resizeLast=0;collapsible=1;marginBottom=0;whiteSpace=wrap;html=1;" vertex="1" parent="1">
          <mxGeometry x="70" y="450" width="230" height="120" as="geometry" />
        </mxCell>
        <mxCell id="HKq2_l8QwF1ey5nwCKm9-6" value="+" style="text;strokeColor=none;fillColor=none;align=left;verticalAlign=top;spacingLeft=4;spacingRight=4;overflow=hidden;rotatable=0;points=[[0,0.5],[1,0.5]];portConstraint=eastwest;whiteSpace=wrap;html=1;" vertex="1" parent="HKq2_l8QwF1ey5nwCKm9-5">
          <mxGeometry y="26" width="230" height="26" as="geometry" />
        </mxCell>
        <mxCell id="HKq2_l8QwF1ey5nwCKm9-7" value="" style="line;strokeWidth=1;fillColor=none;align=left;verticalAlign=middle;spacingTop=-1;spacingLeft=3;spacingRight=3;rotatable=0;labelPosition=right;points=[];portConstraint=eastwest;strokeColor=inherit;" vertex="1" parent="HKq2_l8QwF1ey5nwCKm9-5">
          <mxGeometry y="52" width="230" height="8" as="geometry" />
        </mxCell>
        <mxCell id="HKq2_l8QwF1ey5nwCKm9-8" value="+Override AddPoints(): int&lt;div&gt;&lt;div&gt;&lt;div&gt;+&lt;span style=&quot;background-color: initial;&quot;&gt;Override&lt;/span&gt;&lt;span style=&quot;background-color: initial;&quot;&gt;&amp;nbsp;RecordEvent(): void&lt;/span&gt;&lt;/div&gt;&lt;div&gt;&lt;div&gt;+Override SetCompleteness(bool): void&lt;/div&gt;&lt;div&gt;&lt;br&gt;&lt;/div&gt;&lt;/div&gt;&lt;/div&gt;&lt;div&gt;&lt;/div&gt;&lt;/div&gt;" style="text;strokeColor=none;fillColor=none;align=left;verticalAlign=top;spacingLeft=4;spacingRight=4;overflow=hidden;rotatable=0;points=[[0,0.5],[1,0.5]];portConstraint=eastwest;whiteSpace=wrap;html=1;" vertex="1" parent="HKq2_l8QwF1ey5nwCKm9-5">
          <mxGeometry y="60" width="230" height="60" as="geometry" />
        </mxCell>
        <mxCell id="HKq2_l8QwF1ey5nwCKm9-9" value="Eternal Goal" style="swimlane;fontStyle=1;align=center;verticalAlign=top;childLayout=stackLayout;horizontal=1;startSize=26;horizontalStack=0;resizeParent=1;resizeParentMax=0;resizeLast=0;collapsible=1;marginBottom=0;whiteSpace=wrap;html=1;" vertex="1" parent="1">
          <mxGeometry x="313" y="450" width="225" height="120" as="geometry" />
        </mxCell>
        <mxCell id="HKq2_l8QwF1ey5nwCKm9-10" value="+ field: type" style="text;strokeColor=none;fillColor=none;align=left;verticalAlign=top;spacingLeft=4;spacingRight=4;overflow=hidden;rotatable=0;points=[[0,0.5],[1,0.5]];portConstraint=eastwest;whiteSpace=wrap;html=1;" vertex="1" parent="HKq2_l8QwF1ey5nwCKm9-9">
          <mxGeometry y="26" width="225" height="26" as="geometry" />
        </mxCell>
        <mxCell id="HKq2_l8QwF1ey5nwCKm9-11" value="" style="line;strokeWidth=1;fillColor=none;align=left;verticalAlign=middle;spacingTop=-1;spacingLeft=3;spacingRight=3;rotatable=0;labelPosition=right;points=[];portConstraint=eastwest;strokeColor=inherit;" vertex="1" parent="HKq2_l8QwF1ey5nwCKm9-9">
          <mxGeometry y="52" width="225" height="8" as="geometry" />
        </mxCell>
        <mxCell id="HKq2_l8QwF1ey5nwCKm9-12" value="+Override&amp;nbsp;AddPoints(): int&lt;div&gt;&lt;div&gt;+&lt;span style=&quot;background-color: initial;&quot;&gt;Virtual&lt;/span&gt;&lt;span style=&quot;background-color: initial;&quot;&gt;&amp;nbsp;RecordEvent(): void&lt;/span&gt;&lt;/div&gt;&lt;div&gt;&lt;div&gt;+Virtual SetCompleteness(bool): void&lt;/div&gt;&lt;div&gt;&lt;br&gt;&lt;/div&gt;&lt;/div&gt;&lt;/div&gt;" style="text;strokeColor=none;fillColor=none;align=left;verticalAlign=top;spacingLeft=4;spacingRight=4;overflow=hidden;rotatable=0;points=[[0,0.5],[1,0.5]];portConstraint=eastwest;whiteSpace=wrap;html=1;" vertex="1" parent="HKq2_l8QwF1ey5nwCKm9-9">
          <mxGeometry y="60" width="225" height="60" as="geometry" />
        </mxCell>
        <mxCell id="HKq2_l8QwF1ey5nwCKm9-13" value="Checklist Goal" style="swimlane;fontStyle=1;align=center;verticalAlign=top;childLayout=stackLayout;horizontal=1;startSize=26;horizontalStack=0;resizeParent=1;resizeParentMax=0;resizeLast=0;collapsible=1;marginBottom=0;whiteSpace=wrap;html=1;" vertex="1" parent="1">
          <mxGeometry x="560" y="450" width="220" height="160" as="geometry" />
        </mxCell>
        <mxCell id="HKq2_l8QwF1ey5nwCKm9-14" value="+ _timesForBonus: int&lt;div&gt;+ _bonusPoints: int&lt;/div&gt;&lt;div&gt;+ _timesCompleted: int&lt;/div&gt;" style="text;strokeColor=none;fillColor=none;align=left;verticalAlign=top;spacingLeft=4;spacingRight=4;overflow=hidden;rotatable=0;points=[[0,0.5],[1,0.5]];portConstraint=eastwest;whiteSpace=wrap;html=1;" vertex="1" parent="HKq2_l8QwF1ey5nwCKm9-13">
          <mxGeometry y="26" width="220" height="54" as="geometry" />
        </mxCell>
        <mxCell id="HKq2_l8QwF1ey5nwCKm9-15" value="" style="line;strokeWidth=1;fillColor=none;align=left;verticalAlign=middle;spacingTop=-1;spacingLeft=3;spacingRight=3;rotatable=0;labelPosition=right;points=[];portConstraint=eastwest;strokeColor=inherit;" vertex="1" parent="HKq2_l8QwF1ey5nwCKm9-13">
          <mxGeometry y="80" width="220" height="8" as="geometry" />
        </mxCell>
        <mxCell id="HKq2_l8QwF1ey5nwCKm9-16" value="+Override&amp;nbsp;AddPoints(): int&lt;div&gt;+ DisplayTimesComplete(): string&lt;/div&gt;&lt;div&gt;&lt;div&gt;+&lt;span style=&quot;background-color: initial;&quot;&gt;Virtual&lt;/span&gt;&lt;span style=&quot;background-color: initial;&quot;&gt;&amp;nbsp;RecordEvent(): void&lt;/span&gt;&lt;/div&gt;&lt;div&gt;&lt;div&gt;+Virtual SetCompleteness(bool): void&lt;/div&gt;&lt;div&gt;&lt;br&gt;&lt;/div&gt;&lt;/div&gt;&lt;/div&gt;" style="text;strokeColor=none;fillColor=none;align=left;verticalAlign=top;spacingLeft=4;spacingRight=4;overflow=hidden;rotatable=0;points=[[0,0.5],[1,0.5]];portConstraint=eastwest;whiteSpace=wrap;html=1;" vertex="1" parent="HKq2_l8QwF1ey5nwCKm9-13">
          <mxGeometry y="88" width="220" height="72" as="geometry" />
        </mxCell>
        <mxCell id="HKq2_l8QwF1ey5nwCKm9-21" value="" style="endArrow=none;html=1;rounded=0;exitX=1;exitY=0.5;exitDx=0;exitDy=0;" edge="1" parent="1" source="HKq2_l8QwF1ey5nwCKm9-22" target="HKq2_l8QwF1ey5nwCKm9-4">
          <mxGeometry width="50" height="50" relative="1" as="geometry">
            <mxPoint x="410" y="400" as="sourcePoint" />
            <mxPoint x="460" y="350" as="targetPoint" />
          </mxGeometry>
        </mxCell>
        <mxCell id="HKq2_l8QwF1ey5nwCKm9-23" value="" style="endArrow=none;html=1;rounded=0;exitX=0.5;exitY=0;exitDx=0;exitDy=0;" edge="1" parent="1" source="HKq2_l8QwF1ey5nwCKm9-9" target="HKq2_l8QwF1ey5nwCKm9-22">
          <mxGeometry width="50" height="50" relative="1" as="geometry">
            <mxPoint x="425" y="400" as="sourcePoint" />
            <mxPoint x="425" y="180" as="targetPoint" />
          </mxGeometry>
        </mxCell>
        <mxCell id="HKq2_l8QwF1ey5nwCKm9-22" value="" style="triangle;whiteSpace=wrap;html=1;rotation=-90;" vertex="1" parent="1">
          <mxGeometry x="415" y="280" width="20" height="20" as="geometry" />
        </mxCell>
        <mxCell id="HKq2_l8QwF1ey5nwCKm9-25" value="" style="endArrow=none;html=1;rounded=0;" edge="1" parent="1">
          <mxGeometry width="50" height="50" relative="1" as="geometry">
            <mxPoint x="150" y="450" as="sourcePoint" />
            <mxPoint x="420" y="400" as="targetPoint" />
            <Array as="points">
              <mxPoint x="150" y="400" />
            </Array>
          </mxGeometry>
        </mxCell>
        <mxCell id="HKq2_l8QwF1ey5nwCKm9-26" value="" style="endArrow=none;html=1;rounded=0;" edge="1" parent="1">
          <mxGeometry width="50" height="50" relative="1" as="geometry">
            <mxPoint x="420" y="400" as="sourcePoint" />
            <mxPoint x="680" y="450" as="targetPoint" />
            <Array as="points">
              <mxPoint x="680" y="400" />
            </Array>
          </mxGeometry>
        </mxCell>
        <mxCell id="HKq2_l8QwF1ey5nwCKm9-28" value="Program" style="swimlane;fontStyle=1;align=center;verticalAlign=top;childLayout=stackLayout;horizontal=1;startSize=26;horizontalStack=0;resizeParent=1;resizeParentMax=0;resizeLast=0;collapsible=1;marginBottom=0;whiteSpace=wrap;html=1;" vertex="1" parent="1">
          <mxGeometry x="40" y="40" width="220" height="190" as="geometry" />
        </mxCell>
        <mxCell id="HKq2_l8QwF1ey5nwCKm9-29" value="+ totalPoints: int" style="text;strokeColor=none;fillColor=none;align=left;verticalAlign=top;spacingLeft=4;spacingRight=4;overflow=hidden;rotatable=0;points=[[0,0.5],[1,0.5]];portConstraint=eastwest;whiteSpace=wrap;html=1;" vertex="1" parent="HKq2_l8QwF1ey5nwCKm9-28">
          <mxGeometry y="26" width="220" height="26" as="geometry" />
        </mxCell>
        <mxCell id="HKq2_l8QwF1ey5nwCKm9-30" value="" style="line;strokeWidth=1;fillColor=none;align=left;verticalAlign=middle;spacingTop=-1;spacingLeft=3;spacingRight=3;rotatable=0;labelPosition=right;points=[];portConstraint=eastwest;strokeColor=inherit;" vertex="1" parent="HKq2_l8QwF1ey5nwCKm9-28">
          <mxGeometry y="52" width="220" height="8" as="geometry" />
        </mxCell>
        <mxCell id="HKq2_l8QwF1ey5nwCKm9-31" value="+ DisplayMenu(): string&lt;div&gt;+ DisplayGoals(): string&lt;div&gt;+ DisplayPoints(): int&lt;/div&gt;&lt;div&gt;+ CreateGoal(): Goal&lt;/div&gt;&lt;/div&gt;&lt;div&gt;&lt;div&gt;&lt;span style=&quot;background-color: initial;&quot;&gt;+ SaveGoals(): void&lt;/span&gt;&lt;br&gt;&lt;/div&gt;&lt;div&gt;+ LoadGoals(): void&lt;/div&gt;&lt;/div&gt;&lt;div&gt;&lt;br&gt;&lt;/div&gt;&lt;div&gt;&lt;br&gt;&lt;/div&gt;" style="text;strokeColor=none;fillColor=none;align=left;verticalAlign=top;spacingLeft=4;spacingRight=4;overflow=hidden;rotatable=0;points=[[0,0.5],[1,0.5]];portConstraint=eastwest;whiteSpace=wrap;html=1;" vertex="1" parent="HKq2_l8QwF1ey5nwCKm9-28">
          <mxGeometry y="60" width="220" height="130" as="geometry" />
        </mxCell>
        <mxCell id="HKq2_l8QwF1ey5nwCKm9-33" value="The program class calls the children of the Goal class, and some aspects of the Goal class (saving and loading goals)." style="text;html=1;align=center;verticalAlign=middle;whiteSpace=wrap;rounded=0;" vertex="1" parent="1">
          <mxGeometry x="310" y="580" width="205" height="130" as="geometry" />
        </mxCell>
      </root>
    </mxGraphModel>
  </diagram>
</mxfile>
